# xmcd CD database file
#
# Track frame offsets:
#	187
#	29250
#	62257
#	87900
#	106900
#	128472
#
# Disc length: 2412 seconds
#
# Revision: 0
# Processed by: cddbd v1.5.1PL0 Copyright (c) Steve Scherf et al.
# Submitted via: CDex 1.50beta8
#
DISCID=3b096a06
DTITLE=Benny Golson Sextet - The Modern Touch
DYEAR=1957
DGENRE=Jazz
TTITLE0=Out Of The Past
TTITLE1=Reunion
TTITLE2=Venetian Breeze
TTITLE3=Hymn to The Orient
TTITLE4=Namely You
TTITLE5=Blues On Down
EXTD=YEAR: 1957
EXTT0=
EXTT1=
EXTT2=
EXTT3=
EXTT4=
EXTT5=
PLAYORDER=
